<svg width="1280" height="720" viewBox="0 0 1280 720" fill="none" xmlns="http://www.w3.org/2000/svg">
  <rect width="1280" height="720" rx="36" fill="#3F0D12"/>
  <path d="M0 540C170 430 353 380 546 392C765 406 934 536 1280 460V720H0V540Z" fill="#7F1D1D"/>
  <circle cx="1015" cy="160" r="132" fill="#D97706" fill-opacity="0.28"/>
  <circle cx="920" cy="220" r="64" fill="#FDE68A" fill-opacity="0.38"/>
  <path d="M220 220C300 150 410 120 514 132C614 144 710 210 778 314" stroke="#FDE68A" stroke-width="18" stroke-linecap="round"/>
  <path d="M252 318L340 230L464 308L564 220L706 326" stroke="#FFF7ED" stroke-width="12" stroke-linecap="round"/>
  <rect x="132" y="478" width="318" height="22" rx="11" fill="#FFF7ED" fill-opacity="0.92"/>
  <rect x="132" y="524" width="420" height="16" rx="8" fill="#FCE7F3" fill-opacity="0.76"/>
  <rect x="132" y="558" width="360" height="16" rx="8" fill="#FCE7F3" fill-opacity="0.56"/>
</svg>
