<svg width="1280" height="720" viewBox="0 0 1280 720" fill="none" xmlns="http://www.w3.org/2000/svg">
  <rect width="1280" height="720" rx="36" fill="#14532D"/>
  <circle cx="1000" cy="120" r="160" fill="#FACC15" fill-opacity="0.22"/>
  <path d="M82 560C196 472 312 428 448 428C608 428 712 494 836 566C948 632 1064 664 1280 610V720H0V598C30 590 58 578 82 560Z" fill="#15803D"/>
  <path d="M188 292C242 240 324 218 388 244C436 264 472 310 512 348C558 394 614 432 704 440" stroke="#DCFCE7" stroke-width="16" stroke-linecap="round"/>
  <path d="M286 224C312 282 348 330 392 370C454 426 520 460 620 486" stroke="#F0FDF4" stroke-width="12" stroke-linecap="round"/>
  <rect x="122" y="486" width="284" height="22" rx="11" fill="#F7FEE7" fill-opacity="0.94"/>
  <rect x="122" y="530" width="394" height="16" rx="8" fill="#DCFCE7" fill-opacity="0.76"/>
  <rect x="122" y="564" width="334" height="16" rx="8" fill="#DCFCE7" fill-opacity="0.58"/>
</svg>
