<svg width="1280" height="720" viewBox="0 0 1280 720" fill="none" xmlns="http://www.w3.org/2000/svg">
  <rect width="1280" height="720" rx="36" fill="#1F2937"/>
  <path d="M0 548C190 428 402 398 618 444C834 490 996 598 1280 544V720H0V548Z" fill="#0F766E"/>
  <circle cx="972" cy="148" r="156" fill="#22C55E" fill-opacity="0.22"/>
  <rect x="120" y="136" width="440" height="448" rx="30" fill="#F8FAFC" fill-opacity="0.92"/>
  <rect x="120" y="136" width="440" height="110" rx="30" fill="#0F766E"/>
  <rect x="186" y="114" width="44" height="74" rx="22" fill="#F8FAFC"/>
  <rect x="448" y="114" width="44" height="74" rx="22" fill="#F8FAFC"/>
  <rect x="178" y="304" width="100" height="76" rx="18" fill="#22C55E" fill-opacity="0.22"/>
  <rect x="302" y="304" width="100" height="76" rx="18" fill="#0F766E" fill-opacity="0.18"/>
  <rect x="426" y="304" width="72" height="76" rx="18" fill="#F59E0B" fill-opacity="0.28"/>
  <rect x="178" y="404" width="320" height="18" rx="9" fill="#CBD5E1"/>
  <rect x="178" y="446" width="286" height="18" rx="9" fill="#E2E8F0"/>
  <rect x="678" y="262" width="372" height="22" rx="11" fill="#F8FAFC"/>
  <rect x="678" y="316" width="430" height="18" rx="9" fill="#CBD5E1"/>
  <rect x="678" y="356" width="388" height="18" rx="9" fill="#CBD5E1"/>
  <rect x="678" y="430" width="188" height="50" rx="25" fill="#F59E0B"/>
</svg>
